<svg width="1024" height="1024" viewBox="0 0 1024 1024" fill="none" xmlns="http://www.w3.org/2000/svg">
<g clip-path="url(#clip0_45_2)">
<path d="M1013.76 361.813C1006.93 358.4 1000.11 358.4 996.693 361.813L279.893 822.613C276.48 826.027 273.067 829.44 273.067 832.853C273.067 836.267 273.067 843.093 276.48 846.507L310.613 897.707C314.027 901.12 320.853 904.533 324.267 904.533C327.68 904.533 331.093 904.533 331.093 901.12L1013.76 525.653C1020.59 522.24 1024 515.413 1024 512V375.467C1024 368.64 1020.59 361.813 1013.76 361.813Z" fill="#A34444"/>
<path d="M1017.17 20.4799C1010.35 17.0666 1006.93 17.0666 1000.11 20.4799L320.853 392.533C139.947 392.533 0 460.8 0 546.133V887.467C0 965.973 167.253 1006.93 324.267 1006.93C481.28 1006.93 648.533 965.973 648.533 887.467V795.307C648.533 788.48 645.12 785.067 641.707 781.653C634.88 778.24 631.467 778.24 624.64 781.653L351.573 931.84C327.68 945.493 296.96 935.253 283.307 914.773L249.173 863.573C238.933 853.333 235.52 839.68 238.933 826.027C242.347 812.373 249.173 802.133 262.827 791.893L419.84 689.493L638.293 549.547C641.707 549.547 641.707 546.133 645.12 542.72V539.307V529.067C638.293 477.867 576.853 433.493 488.107 409.6L1013.76 146.773C1020.59 150.187 1024 143.36 1024 136.533V34.1333C1024 27.3066 1020.59 23.8933 1017.17 20.4799ZM324.267 426.667H395.947C402.773 426.667 406.187 426.667 413.013 430.08H423.253C426.667 430.08 433.493 430.08 436.907 433.493C440.32 433.493 443.733 433.493 447.147 436.907C450.56 436.907 457.387 440.32 460.8 440.32C464.213 440.32 467.627 440.32 471.04 443.733C474.453 443.733 477.867 447.147 484.693 447.147C488.107 447.147 491.52 450.56 494.933 450.56C498.347 450.56 501.76 453.973 505.173 453.973C508.587 453.973 512 457.387 515.413 457.387C518.827 457.387 522.24 460.8 525.653 460.8C529.067 460.8 532.48 464.213 532.48 464.213C535.893 464.213 539.307 467.627 542.72 467.627C546.133 467.627 549.547 471.04 549.547 471.04C552.96 471.04 556.373 474.453 556.373 474.453C559.787 474.453 559.787 477.867 563.2 477.867C566.613 477.867 566.613 481.28 570.027 481.28C573.44 481.28 573.44 484.693 576.853 484.693L583.68 491.52L587.093 494.933L593.92 501.76L597.333 505.173C600.747 508.587 600.747 508.587 600.747 512L604.16 515.413C607.573 518.827 607.573 522.24 607.573 525.653L402.773 658.773C392.533 658.773 385.707 662.187 375.467 662.187H320.853C150.187 665.6 34.1333 604.16 34.1333 546.133C34.1333 488.107 150.187 426.667 324.267 426.667Z" fill="#A34444"/>
<path d="M324.267 597.333C368.64 597.333 512 593.92 512 546.133C512 498.347 368.64 494.933 324.267 494.933C279.893 494.933 136.533 498.347 136.533 546.133C136.533 593.92 279.893 597.333 324.267 597.333Z" fill="#A34444"/>
</g>
<defs>
<clipPath id="clip0_45_2">
<rect width="1024" height="1024" fill="white"/>
</clipPath>
</defs>
</svg>
